<svg xmlns="http://www.w3.org/2000/svg" viewBox="0 0 426.667 426.667" enable-background="new 0 0 426.667 426.667"><path d="M213.12 0c-117.76 0-213.12 95.573-213.12 213.333s95.36 213.333 213.12 213.333c117.973 0 213.547-95.573 213.547-213.333s-95.574-213.333-213.547-213.333zm.213 384c-94.293 0-170.667-76.373-170.667-170.667s76.374-170.666 170.667-170.666 170.667 76.373 170.667 170.666-76.373 170.667-170.667 170.667zM149.333 256h128v32h-128zM170.667 160c0-17.707-14.293-32-32-32s-32 14.293-32 32 14.293 32 32 32 32-14.293 32-32zM288 128c-17.707 0-32 14.293-32 32s14.293 32 32 32 32-14.293 32-32-14.293-32-32-32z"/></svg>