<svg xmlns="http://www.w3.org/2000/svg" viewBox="0 0 426.667 426.667" enable-background="new 0 0 426.667 426.667"><path d="M288 192c17.707 0 32-14.293 32-32s-14.293-32-32-32-32 14.293-32 32 14.293 32 32 32zM138.667 192c17.707 0 32-14.293 32-32s-14.293-32-32-32-32 14.293-32 32 14.293 32 32 32zM213.333 256c-49.707 0-91.84 31.04-108.907 74.667h217.814c-17.067-43.627-59.2-74.667-108.907-74.667zM213.227 0c-117.867 0-213.227 95.467-213.227 213.333s95.36 213.333 213.227 213.333 213.44-95.467 213.44-213.333-95.574-213.333-213.44-213.333zm.106 384c-94.293 0-170.667-76.373-170.667-170.667s76.374-170.666 170.667-170.666 170.667 76.373 170.667 170.666-76.373 170.667-170.667 170.667z"/></svg>