<?xml version="1.0" encoding="utf-8"?><svg xmlns="http://www.w3.org/2000/svg" xmlns:xlink="http://www.w3.org/1999/xlink"><symbol viewBox="0 0 426.667 426.667" id="neutral" xmlns="http://www.w3.org/2000/svg"><path d="M213.12 0C95.36 0 0 95.573 0 213.333s95.36 213.333 213.12 213.333c117.973 0 213.547-95.573 213.547-213.333S331.093 0 213.12 0zm.213 384c-94.293 0-170.667-76.373-170.667-170.667S119.04 42.667 213.333 42.667 384 119.04 384 213.333 307.627 384 213.333 384zm-64-128h128v32h-128zm21.334-96c0-17.707-14.293-32-32-32s-32 14.293-32 32 14.293 32 32 32 32-14.293 32-32zM288 128c-17.707 0-32 14.293-32 32s14.293 32 32 32 32-14.293 32-32-14.293-32-32-32z"/></symbol><symbol viewBox="0 0 426.667 426.667" id="sad" xmlns="http://www.w3.org/2000/svg"><path d="M288 192c17.707 0 32-14.293 32-32s-14.293-32-32-32-32 14.293-32 32 14.293 32 32 32zm-149.333 0c17.707 0 32-14.293 32-32s-14.293-32-32-32-32 14.293-32 32 14.293 32 32 32zm74.666 64c-49.707 0-91.84 31.04-108.907 74.667H322.24C305.173 287.04 263.04 256 213.333 256zm-.106-256C95.36 0 0 95.467 0 213.333s95.36 213.333 213.227 213.333 213.44-95.467 213.44-213.333S331.093 0 213.227 0zm.106 384c-94.293 0-170.667-76.373-170.667-170.667S119.04 42.667 213.333 42.667 384 119.04 384 213.333 307.627 384 213.333 384z"/></symbol></svg>