<?xml version="1.0" encoding="iso-8859-1"?><svg xmlns="http://www.w3.org/2000/svg" xmlns:xlink="http://www.w3.org/1999/xlink"><symbol viewBox="0 0 512 512" id="diver" xmlns="http://www.w3.org/2000/svg"><circle cx="256" cy="256" r="256" fill="#71e2ef"/><path d="M204.571 380.983L325.92 502.332C433.317 471.907 512 373.143 512 256c0-.681-.021-1.358-.026-2.038L358.86 100.848 204.571 380.983z" fill="#38c6d9"/><path fill="#fcd088" d="M213.333 292.219h85.333v104.296h-85.333z"/><path fill="#ddab62" d="M256.569 292.219h42.091v104.296h-42.091z"/><path d="M347.529 205.44c.459-4.244.698-8.428.698-12.509 0-53.974-41.293-97.728-92.229-97.728s-92.227 43.753-92.227 97.728c0 4.08.24 8.264.698 12.509-8.945 2.326-13.202 16.087-9.506 30.817 3.708 14.776 14.014 24.921 23.018 22.661.821-.205 1.586-.538 2.326-.927 16.667 33.452 44.351 60.594 75.693 60.594s59.027-27.139 75.693-60.594c.74.39 1.505.722 2.326.927 9.004 2.26 19.309-7.885 23.018-22.661 3.695-14.73-.561-28.494-9.508-30.817z" fill="#ffedb5"/><path d="M347.529 205.44c.459-4.244.698-8.428.698-12.509 0-53.769-40.982-97.383-91.653-97.713v223.349c31.104-.331 58.554-27.331 75.117-60.576.74.39 1.505.721 2.326.927 9.004 2.26 19.309-7.885 23.018-22.661 3.697-14.73-.559-28.494-9.506-30.817z" fill="#e8cf89"/><path d="M204.14 170.667s40.081 38.357 121.966 24.566c0 0 7.94-1.998 21.425 10.207 0 0 24.691-51.581 11.331-104.591 0 0-43.529 5.603-62.923-6.465-19.394-12.067-71.111-24.997-82.747 11.205 0 0-37.495-4.741-47.838 34.047-10.343 38.788-.883 65.803-.883 65.803s19.413-46.84 39.669-34.772z" fill="#494948"/><path d="M358.86 100.848s-43.529 5.603-62.923-6.465c-8.754-5.448-24.095-11.054-39.362-12.254v112.547c18.313 3.881 41.463 5.282 69.53.555 0 0 7.94-1.998 21.425 10.207-.001.002 24.691-51.579 11.33-104.59z" fill="#333"/><path d="M386.443 394.178h-20.687v-72.404c0-10.473-8.49-18.963-18.963-18.963h-72.404v-20.687h77.791c18.923 0 34.263 15.339 34.263 34.263v77.791z" fill="#121149"/><circle cx="256" cy="293.323" r="27.008" fill="#b3e0e2"/><path d="M283.008 293.329c0-14.722-11.785-26.669-26.433-26.979v53.958c14.649-.31 26.433-12.256 26.433-26.979z" fill="#38c6d9"/><g fill="#386895"><path d="M256 327.232c-18.696 0-33.904-15.208-33.904-33.902 0-18.696 15.208-33.904 33.904-33.904s33.904 15.208 33.904 33.904c0 18.693-15.208 33.902-33.904 33.902zm0-54.015c-11.092 0-20.113 9.021-20.113 20.113 0 11.09 9.021 20.111 20.113 20.111 11.092 0 20.113-9.021 20.113-20.111s-9.021-20.113-20.113-20.113z"/><path d="M289.904 293.329c0-18.501-14.9-33.563-33.328-33.875v13.791c10.824.309 19.537 9.187 19.537 20.083 0 10.895-8.714 19.773-19.537 20.082v13.791c18.427-.309 33.328-15.372 33.328-33.872z"/></g><path d="M370.691 365.671l-50.964-9.044-9.007-11.666c-1.686-2.184-4.875-3.007-7.618-1.965l-10.84 10.931c-19.961 20.128-52.515 20.083-72.42-.102l-10.662-10.812c-2.722-1.053-5.904-.262-7.613 1.893l-9.295 11.719-50.964 9.044c-25.948 4.605-44.627 24.819-44.627 48.3v42.408C140.404 491.187 195.768 512 256 512s115.595-20.813 159.318-55.622V413.97c0-23.479-18.678-43.694-44.627-48.299z" fill="#366695"/><path d="M415.318 413.97c0-23.48-18.679-43.696-44.627-48.3l-50.964-9.044-9.007-11.666c-1.686-2.184-4.875-3.006-7.618-1.965l-10.84 10.931c-9.842 9.925-22.745 14.934-35.687 15.055v143.012c60.007-.133 115.159-20.916 158.742-55.615l.001-42.408z" fill="#273b7a"/><path d="M343.345 496.704a254.304 254.304 0 0 0 26.433-11.336V358.859l-26.433-5.746v143.591z" fill="#121149"/><path d="M142.222 485.369a254.421 254.421 0 0 0 26.433 11.335V353.113l-26.433 5.747v126.509z" fill="#273b7a"/><path d="M256 222.848c7.851 0 4.996 19.27 12.49 24.266 7.494 4.996 31.311 9.278 50.938 9.992 19.627.714 29.708-56.023 11.509-60.306s-56.058-9.278-74.935-9.278-56.737 4.996-74.935 9.278c-18.199 4.282-8.118 61.019 11.509 60.306 19.627-.714 43.444-4.996 50.938-9.992 7.49-4.997 4.635-24.266 12.486-24.266z" fill="#71e2ef"/><path d="M330.936 196.799c-18.02-4.239-55.303-9.176-74.361-9.273v35.368c7.132.936 4.611 19.351 11.914 24.219 7.494 4.996 31.311 9.278 50.938 9.992 19.626.712 29.707-56.023 11.509-60.306z" fill="#38c6d9"/><path d="M319.817 263.146c-.202 0-.403-.003-.609-.01-19.53-.71-45.092-5.02-54.065-11.002-5.58-3.718-7.118-10.718-8.473-16.893-.193-.879-.422-1.919-.671-2.931-.248 1.012-.476 2.051-.671 2.931-1.355 6.175-2.893 13.174-8.473 16.893-8.973 5.982-34.535 10.292-54.065 11.002-.203.007-.407.01-.609.01-14.495 0-23.657-18.973-26.059-36.842-2.589-19.244 2.607-32.799 13.557-35.376 18.165-4.274 56.258-9.438 76.319-9.438s58.152 5.163 76.319 9.438c10.952 2.577 16.146 16.132 13.557 35.376-2.401 17.867-11.564 36.84-26.057 36.842zM256 216.816c8.978 0 11.071 9.53 12.457 15.838.691 3.15 1.848 8.421 3.381 9.442 5.435 3.624 26.407 8.204 47.809 8.982l.141.003c5.653 0 12.226-12.241 14.127-26.383 1.691-12.571-.948-21.22-4.361-22.021-17.439-4.105-54.805-9.118-73.554-9.118s-56.115 5.013-73.554 9.118c-3.413.803-6.054 9.45-4.361 22.021 1.919 14.26 8.545 26.584 14.269 26.379 21.402-.777 42.374-5.358 47.809-8.982 1.533-1.021 2.689-6.291 3.381-9.442 1.385-6.308 3.478-15.837 12.456-15.837z" fill="#366695"/><path d="M332.319 190.926c-17.996-4.236-55.539-9.338-75.743-9.433v12.067c18.925.098 55.713 5.049 72.978 9.113 3.413.803 6.054 9.45 4.361 22.021-1.903 14.141-8.475 26.383-14.127 26.383l-.141-.003c-21.402-.777-42.374-5.358-47.809-8.982-1.533-1.021-2.689-6.291-3.381-9.442-1.355-6.165-3.403-15.386-11.881-15.798v17.961l.095.426c1.355 6.175 2.893 13.174 8.473 16.893 8.973 5.982 34.535 10.292 54.065 11.002.203.007.405.01.609.01 14.493-.002 23.657-18.975 26.059-36.842 2.588-19.244-2.608-32.799-13.558-35.376z" fill="#273b7a"/></symbol><symbol viewBox="0 0 512 512" id="thief" xmlns="http://www.w3.org/2000/svg"><circle cx="256" cy="256" r="256" fill="#71e2ef"/><path d="M312.889 120.913l-58.004 220.739 133.499 133.499c58.323-35.306 101.419-93.234 117.124-161.621L312.889 120.913z" fill="#38c6d9"/><path d="M139.604 377.558H360.01l-44.356-19.746a28.636 28.636 0 0 1-16.989-26.159v-39.429h-85.333v38.097a28.632 28.632 0 0 1-18.689 26.85l-55.039 20.387z" fill="#282828"/><path d="M315.656 357.812a28.636 28.636 0 0 1-16.989-26.159v-39.429h-42.379v85.333H360.01l-44.354-19.745z" fill="#161616"/><path d="M371.622 361.374l-51.378-9.918s-63.462 43.553-128.49 0l-51.378 9.918c-26.159 5.049-44.989 27.219-44.989 52.967v40.996C139.311 490.772 195.172 512 256 512s116.689-21.228 160.611-56.663v-40.996c0-25.749-18.828-47.918-44.989-52.967z" fill="#3c4443"/><path d="M416.611 414.341c0-25.748-18.83-47.918-44.989-52.967l-51.378-9.918s-27.067 18.568-63.955 19.328v141.214c60.716-.067 116.47-21.282 160.323-56.661v-40.996h-.001z" fill="#333"/><path d="M349.379 200.597c0 61.887-41.806 127.569-93.379 127.569s-93.379-65.683-93.379-127.569 41.806-97.401 93.379-97.401 93.379 35.515 93.379 97.401z" fill="#494948"/><path d="M349.379 200.597c0-61.769-41.653-97.261-93.091-97.394v224.952c51.44-.246 93.091-65.789 93.091-127.558z" fill="#333"/><path d="M234.724 210.346c1.92 11.424-5.277 22.156-16.074 23.971-10.797 1.815-24.259 3.005-26.179-8.42s9.857-22.635 20.654-24.448c10.797-1.816 19.678-2.528 21.599 8.897z" fill="#ffedb5"/><path d="M277.278 210.346c-1.92 11.424 5.277 22.156 16.074 23.971s24.259 3.005 26.179-8.42c1.92-11.424-9.857-22.635-20.654-24.448-10.797-1.814-19.678-2.528-21.599 8.897z" fill="#fee187"/><path d="M285.091 287.461c0 10.711-13.024 15.946-29.091 15.946s-29.091-5.236-29.091-15.946S239.935 260.31 256 260.31s29.091 16.441 29.091 27.151z" fill="#ffedb5"/><path d="M285.091 287.461c0-10.647-12.871-26.936-28.803-27.134v43.074c15.932-.063 28.803-5.293 28.803-15.94z" fill="#fee187"/></symbol></svg>